<svg width="32" height="32" viewBox="0 0 32 32" fill="none" xmlns="http://www.w3.org/2000/svg">
<path d="M11 18.6667C11 18.1144 11.4477 17.6667 12 17.6667H20C20.5523 17.6667 21 18.1144 21 18.6667C21 19.2189 20.5523 19.6667 20 19.6667H12C11.4477 19.6667 11 19.2189 11 18.6667Z" fill="#111111" fill-opacity="0.72"/>
<path fill-rule="evenodd" clip-rule="evenodd" d="M12 1.66666C12.5523 1.66666 13 2.11437 13 2.66666V4.34746C13.8923 4.33332 14.8838 4.33332 15.9853 4.33332H16.0147C17.1162 4.33332 18.1077 4.33332 19 4.34746V2.66666C19 2.11437 19.4477 1.66666 20 1.66666C20.5523 1.66666 21 2.11437 21 2.66666V4.4181C23.0159 4.54448 24.5646 4.87112 25.8397 5.79753C26.4905 6.2704 27.0629 6.84278 27.5358 7.49364C28.6049 8.96518 28.8753 10.8012 28.9608 13.2991C29 14.442 29 15.7719 29 17.3186V17.348C29 18.8948 29 20.2246 28.9608 21.3676C28.8753 23.8655 28.6049 25.7015 27.5358 27.173C27.0629 27.8239 26.4905 28.3962 25.8397 28.8691C24.3681 29.9383 22.5322 30.2086 20.0342 30.2942C18.8912 30.3333 17.5613 30.3333 16.0144 30.3333H15.9396C13.4909 30.3333 11.5715 30.3333 10.0486 30.1684C8.49459 30 7.23541 29.6502 6.16031 28.8691C5.50945 28.3962 4.93708 27.8239 4.4642 27.173C3.6831 26.0979 3.33334 24.8387 3.16497 23.2847C2.99998 21.7618 2.99999 19.8424 3 17.3937L3 17.3186C3 15.7718 3 14.442 3.03916 13.2991C3.12474 10.8012 3.39506 8.96518 4.4642 7.49364C4.93708 6.84278 5.50945 6.2704 6.16031 5.79753C7.4354 4.87112 8.98411 4.54448 11 4.4181V2.66666C11 2.11437 11.4477 1.66666 12 1.66666ZM11 6.42299C9.18393 6.54788 8.1357 6.83446 7.33588 7.41556C6.85481 7.76508 6.43176 8.18814 6.08224 8.66921C5.50114 9.46902 5.21456 10.5173 5.08967 12.3333H26.9103C26.7854 10.5173 26.4989 9.46902 25.9178 8.66921C25.5682 8.18814 25.1452 7.76508 24.6641 7.41556C23.8643 6.83446 22.8161 6.54788 21 6.42299V6.66666C21 7.21894 20.5523 7.66666 20 7.66666C19.4477 7.66666 19 7.21894 19 6.66666V6.3477C18.1206 6.33339 17.1301 6.33332 16 6.33332C14.8699 6.33332 13.8794 6.33339 13 6.3477V6.66666C13 7.21894 12.5523 7.66666 12 7.66666C11.4477 7.66666 11 7.21894 11 6.66666V6.42299ZM26.9856 14.3333H5.01438C5.00007 15.2128 5 16.2032 5 17.3333C5 19.8554 5.00137 21.6667 5.15333 23.0693C5.30327 24.4531 5.59012 25.3201 6.08224 25.9974C6.43176 26.4785 6.85481 26.9016 7.33588 27.2511C8.01322 27.7432 8.88018 28.0301 10.2641 28.18C11.6667 28.332 13.4779 28.3333 16 28.3333C17.1311 28.3333 18.1224 28.3333 19.0024 28.3189C19.0083 27.686 19.028 27.2201 19.0944 26.8007C19.614 23.5201 22.1868 20.9473 25.4673 20.4277C25.8868 20.3613 26.3527 20.3416 26.9856 20.3358C26.9999 19.4557 27 18.4645 27 17.3333C27 16.2032 26.9999 15.2128 26.9856 14.3333ZM26.9101 22.337C26.3702 22.3433 26.0536 22.3598 25.7802 22.4031C23.3555 22.7871 21.4538 24.6888 21.0698 27.1135C21.0265 27.3869 21.01 27.7035 21.0037 28.2434C22.8175 28.1184 23.8648 27.8318 24.6641 27.2511C25.1452 26.9016 25.5682 26.4785 25.9178 25.9974C26.4985 25.1982 26.785 24.1508 26.9101 22.337Z" fill="#111111" fill-opacity="0.72"/>
</svg>
