<svg width="48" height="48" viewBox="0 0 48 48" fill="none" xmlns="http://www.w3.org/2000/svg">
<rect width="48" height="48" rx="16" fill="#111111" fill-opacity="0.12"/>
<rect x="0.5" y="0.5" width="47" height="47" rx="15.5" stroke="#111111" stroke-opacity="0.12"/>
<path d="M26.528 19.5327C26.8222 19.2411 26.8243 18.7662 26.5327 18.472C26.2411 18.1778 25.7662 18.1757 25.472 18.4673L23.6773 20.2461C23.0013 20.916 22.4489 21.4636 22.0571 21.9515C21.6496 22.4588 21.3547 22.9737 21.2759 23.5918C21.2414 23.8629 21.2414 24.1371 21.2759 24.4082C21.3547 25.0263 21.6496 25.5412 22.0571 26.0485C22.4489 26.5364 23.0013 27.084 23.6773 27.7539L25.472 29.5327C25.7662 29.8243 26.2411 29.8222 26.5327 29.528C26.8243 29.2338 26.8222 28.7589 26.528 28.4673L24.765 26.72C24.0495 26.0109 23.5587 25.5228 23.2266 25.1093C22.904 24.7076 22.7933 24.4496 22.7639 24.2185C22.7454 24.0734 22.7454 23.9266 22.7639 23.7815C22.7933 23.5504 22.904 23.2924 23.2266 22.8907C23.5587 22.4772 24.0495 21.9891 24.765 21.28L26.528 19.5327Z" fill="#2D264B"/>
</svg>
