<svg width="176" height="175" viewBox="0 0 176 175" fill="none" xmlns="http://www.w3.org/2000/svg">
<path fill-rule="evenodd" clip-rule="evenodd" d="M97.4434 34.9928C97.4434 40.4376 93.0295 44.8514 87.5848 44.8514C82.1401 44.8514 77.7263 40.4376 77.7263 34.9928C77.7263 29.5481 82.1401 25.1342 87.5848 25.1342C93.0295 25.1342 97.4434 29.5481 97.4434 34.9928ZM109.128 34.9928C109.128 46.8906 99.4826 56.5357 87.5848 56.5357C75.6871 56.5357 66.042 46.8906 66.042 34.9928C66.042 23.095 75.6871 13.45 87.5848 13.45C99.4826 13.45 109.128 23.095 109.128 34.9928ZM13.4639 57.9051C13.4639 57.9051 36.4993 43.9424 58.9535 51.4511C81.4076 58.9599 87.5131 82.6673 87.5131 82.6673L87.5129 82.9825L87.5052 83.0117L87.5179 83.0005L87.5132 82.9825L87.5131 82.6673C87.5131 82.6673 93.6185 58.9599 116.073 51.4511C138.527 43.9424 161.562 57.9051 161.562 57.9051C161.562 57.9051 155.692 72.5824 142.851 82.8253C155.692 93.0685 161.562 107.746 161.562 107.746C161.562 107.746 138.526 121.708 116.072 114.199C112.099 112.87 108.637 111.034 105.631 108.912C107.308 113.579 108.396 118.714 108.396 124.179C108.396 148.005 87.7191 161.398 87.7191 161.398C87.7191 161.398 67.0421 148.005 67.0421 124.179C67.0421 118.557 68.1936 113.285 69.9532 108.511C66.8193 110.803 63.1755 112.787 58.9538 114.199C36.4998 121.708 13.4641 107.746 13.4641 107.746C13.4641 107.746 19.3339 93.0685 32.1747 82.8253C19.3339 72.5824 13.4639 57.9051 13.4639 57.9051ZM55.2714 103.188C62.6121 100.733 67.6651 95.7668 71.0966 90.7063C64.0401 92.7295 55.2677 93.5502 45.9208 90.4246C44.9373 90.0957 43.9778 89.7333 43.0419 89.3408C38.0121 92.452 33.8644 96.7927 30.6142 101.197C30.3482 101.557 30.0904 101.915 29.8409 102.269C30.2533 102.402 30.6745 102.533 31.1039 102.661C38.479 104.858 47.1961 105.888 55.2714 103.188ZM29.8408 63.3816C30.0903 63.7358 30.348 64.0937 30.6141 64.4542C35.1839 70.6459 41.5278 76.7126 49.6031 79.413C57.4892 82.0501 65.0094 80.7839 71.0213 78.5047C71.655 78.2645 72.2642 78.0157 72.8468 77.7629C72.5335 77.2106 72.1965 76.6453 71.8348 76.0722C68.4031 70.6351 63.1573 65.0999 55.2712 62.4627C47.1959 59.7624 38.4789 60.7926 31.1037 62.9899C30.6743 63.1179 30.2532 63.2487 29.8408 63.3816ZM119.755 103.188C112.414 100.733 107.361 95.7668 103.93 90.7063C110.986 92.7295 119.758 93.5502 129.105 90.4246C130.089 90.0957 131.048 89.7333 131.984 89.3408C137.014 92.452 141.162 96.7927 144.412 101.197C144.678 101.557 144.936 101.915 145.185 102.269C144.773 102.402 144.352 102.533 143.922 102.661C136.547 104.858 127.83 105.888 119.755 103.188ZM145.185 63.3816C144.936 63.7358 144.678 64.0937 144.412 64.4542C139.842 70.6459 133.498 76.7126 125.423 79.413C117.537 82.0501 110.017 80.7839 104.005 78.5047C103.371 78.2645 102.762 78.0157 102.179 77.7629C102.493 77.2106 102.83 76.6453 103.191 76.0722C106.623 70.6351 111.869 65.0999 119.755 62.4627C127.83 59.7624 136.547 60.7926 143.922 62.9899C144.352 63.1179 144.773 63.2487 145.185 63.3816ZM87.7191 100.203C87.4607 100.554 87.2014 100.914 86.9423 101.283C82.4915 107.62 78.7263 115.611 78.7263 124.179C78.7263 132.547 82.3348 139.32 86.4286 144.331C86.86 144.859 87.292 145.361 87.7191 145.836C88.1462 145.361 88.5781 144.859 89.0096 144.331C93.1034 139.32 96.7118 132.547 96.7118 124.179C96.7118 115.611 92.9467 107.62 88.4959 101.283C88.2368 100.914 87.9775 100.554 87.7191 100.203Z" fill="#EFF4FE"/>
</svg>
