<svg width="32" height="32" viewBox="0 0 32 32" fill="none" xmlns="http://www.w3.org/2000/svg">
<path fill-rule="evenodd" clip-rule="evenodd" d="M16.047 2.29834H16.047C17.7055 2.29833 19.0163 2.29833 20.0891 2.39418C21.191 2.49264 22.1127 2.6967 22.9838 3.14356C23.2094 3.25932 23.4292 3.3862 23.6423 3.52373C24.4648 4.05468 25.1024 4.75085 25.7386 5.65593C26.358 6.53702 27.0134 7.67223 27.8426 9.10841L27.8426 9.10845L27.8896 9.18983C28.7188 10.6261 29.3742 11.7613 29.8276 12.7383C30.2933 13.7418 30.5774 14.6421 30.626 15.6199C30.6385 15.8732 30.6385 16.1269 30.626 16.3802C30.5774 17.358 30.2933 18.2583 29.8276 19.2618C29.3742 20.2388 28.7188 21.374 27.8896 22.8102L27.8426 22.8916C27.0134 24.3278 26.358 25.4631 25.7386 26.3442C25.1024 27.2492 24.4648 27.9454 23.6423 28.4764C23.4292 28.6139 23.2094 28.7408 22.9838 28.8565C22.1127 29.3034 21.191 29.5075 20.0891 29.6059C19.0163 29.7018 17.7054 29.7018 16.047 29.7018H15.953C14.2947 29.7018 12.9838 29.7018 11.9111 29.6059C10.8091 29.5075 9.88745 29.3034 9.01636 28.8565C8.79072 28.7408 8.57096 28.6139 8.35789 28.4764C7.53535 27.9454 6.8978 27.2492 6.26155 26.3442C5.64216 25.463 4.98671 24.3278 4.15751 22.8915L4.11055 22.8102L4.11053 22.8102L4.11051 22.8101C3.28132 21.3739 2.6259 20.2387 2.17255 19.2618C1.70685 18.2583 1.42272 17.358 1.37418 16.3802C1.3616 16.1269 1.3616 15.8732 1.37418 15.6199C1.42272 14.6421 1.70685 13.7418 2.17255 12.7383C2.62592 11.7613 3.28136 10.6261 4.11057 9.18985L4.15753 9.10852C4.98673 7.67229 5.64216 6.53704 6.26156 5.65593C6.8978 4.75085 7.53535 4.05468 8.35789 3.52373C8.57096 3.3862 8.79072 3.25932 9.01637 3.14356C9.88745 2.6967 10.8091 2.49264 11.9111 2.39418C12.9838 2.29833 14.2947 2.29833 15.9531 2.29834H15.9531H16.047ZM17.9937 10.9604C19.9116 10.1707 21.8294 12.0885 21.0397 14.0064L19.57 17.5755C19.1977 18.4797 18.4798 19.1977 17.5756 19.57L14.0065 21.0396C12.0886 21.8293 10.1708 19.9115 10.9605 17.9936L12.4301 14.4244C12.8024 13.5203 13.5204 12.8023 14.4245 12.43L17.9937 10.9604Z" fill="#F03D00"/>
</svg>
