<svg width="30" height="28" viewBox="0 0 30 28" fill="none" xmlns="http://www.w3.org/2000/svg">
<path fill-rule="evenodd" clip-rule="evenodd" d="M24.2731 1.3166C25.369 2.41247 25.7549 3.9483 25.4318 5.35461C27.6222 5.5714 29.3332 7.41923 29.3332 9.66667C29.3332 10.9203 28.8009 12.0495 27.9499 12.8408C27.9998 13.6333 27.9998 14.3671 27.9998 15.8196V15.8928C27.9998 17.4896 27.9998 18.737 27.9343 19.7435C27.8677 20.7657 27.7305 21.6102 27.4223 22.3896C26.6519 24.3382 25.168 25.9008 23.2825 26.7191C22.5233 27.0485 21.7024 27.194 20.7188 27.2643C19.7534 27.3334 18.559 27.3333 17.0387 27.3333H12.961C11.4408 27.3333 10.2462 27.3334 9.28084 27.2643C8.29728 27.194 7.47637 27.0485 6.71721 26.7191C4.83163 25.9008 3.34779 24.3382 2.57736 22.3896C2.26918 21.6102 2.13196 20.7657 2.06539 19.7435C1.99983 18.737 1.99983 17.4897 1.99984 15.8928V15.8572C1.99984 15.223 1.9872 14.7119 1.97615 14.2648C1.96225 13.7029 1.95086 13.2421 1.9702 12.7649C1.16578 11.9782 0.666504 10.8807 0.666504 9.66667C0.666504 7.34937 2.48546 5.4569 4.77348 5.33915C4.45673 3.93706 4.84387 2.40847 5.93573 1.31662C7.628 -0.375657 10.3717 -0.375657 12.064 1.31662L14.8924 4.14504C14.9663 4.21891 15.0369 4.29483 15.1044 4.37262C15.1719 4.29482 15.2425 4.2189 15.3164 4.14503L18.1448 1.3166C19.8371 -0.375674 22.5808 -0.375674 24.2731 1.3166ZM19.5591 2.73081C20.4703 1.81959 21.9477 1.81959 22.8589 2.73081C23.5622 3.43412 23.723 4.47606 23.34 5.33334H16.9565L19.5591 2.73081ZM10.6498 2.73083L13.2523 5.33334H6.86884C6.48581 4.47607 6.64664 3.43413 7.34994 2.73083C8.26116 1.81961 9.73855 1.81961 10.6498 2.73083ZM2.6665 9.66667C2.6665 8.37801 3.71117 7.33334 4.99984 7.33334H13.9998V12H4.99984C3.71117 12 2.6665 10.9553 2.6665 9.66667ZM15.9998 25L15.9998 14H24.9998C25.3405 14 25.6721 13.9607 25.9901 13.8863C25.9997 14.3781 25.9998 14.977 25.9998 15.8572C25.9998 17.4973 25.9993 18.6796 25.9385 19.6136C25.8782 20.5394 25.7617 21.1502 25.5624 21.6542C24.9796 23.1283 23.8678 24.2849 22.4863 24.8844C22.0203 25.0866 21.4521 25.2068 20.5762 25.2694C19.6904 25.3327 18.5673 25.3333 16.9998 25.3333H15.9429C15.9798 25.2291 15.9998 25.1169 15.9998 25ZM13.9998 25L13.9998 14H4.99984C4.64422 14 4.29861 13.9572 3.96788 13.8764L3.97281 14.0609C3.98481 14.5042 3.99984 15.0591 3.99984 15.8572C3.99984 17.4973 4.00033 18.6796 4.06116 19.6136C4.12145 20.5394 4.23796 21.1502 4.43726 21.6542C5.02007 23.1283 6.13189 24.2849 7.51336 24.8844C7.97934 25.0866 8.54757 25.2068 9.42343 25.2694C10.3092 25.3327 11.4324 25.3333 12.9998 25.3333H14.0567C14.0199 25.2291 13.9998 25.1169 13.9998 25ZM27.3332 9.66667C27.3332 8.37801 26.2885 7.33334 24.9998 7.33334H15.9998V12H24.9998C26.2885 12 27.3332 10.9553 27.3332 9.66667Z" fill="#111111"/>
</svg>
