<svg width="26" height="30" viewBox="0 0 26 30" fill="none" xmlns="http://www.w3.org/2000/svg">
<path d="M8 17.6667C8 17.1144 8.44772 16.6667 9 16.6667H17C17.5523 16.6667 18 17.1144 18 17.6667C18 18.2189 17.5523 18.6667 17 18.6667H9C8.44772 18.6667 8 18.2189 8 17.6667Z" fill="#111111" fill-opacity="0.72"/>
<path fill-rule="evenodd" clip-rule="evenodd" d="M9 0.666656C9.55229 0.666656 10 1.11437 10 1.66666V3.34746C10.8923 3.33332 11.8838 3.33332 12.9853 3.33332H13.0147C14.1162 3.33332 15.1077 3.33332 16 3.34746V1.66666C16 1.11437 16.4477 0.666656 17 0.666656C17.5523 0.666656 18 1.11437 18 1.66666V3.4181C20.0159 3.54448 21.5646 3.87112 22.8397 4.79753C23.4905 5.2704 24.0629 5.84278 24.5358 6.49364C25.6049 7.96518 25.8753 9.80116 25.9608 12.2991C26 13.442 26 14.7719 26 16.3186V16.348C26 17.8948 26 19.2246 25.9608 20.3676C25.8753 22.8655 25.6049 24.7015 24.5358 26.173C24.0629 26.8239 23.4905 27.3962 22.8397 27.8691C21.3681 28.9383 19.5322 29.2086 17.0342 29.2942C15.8912 29.3333 14.5613 29.3333 13.0144 29.3333H12.9396C10.4909 29.3333 8.57148 29.3333 7.04864 29.1684C5.49459 29 4.23541 28.6502 3.16031 27.8691C2.50945 27.3962 1.93708 26.8239 1.4642 26.173C0.683099 25.0979 0.333342 23.8387 0.164971 22.2847C-1.95305e-05 20.7618 -1.08664e-05 18.8424 1.80298e-07 16.3937L3.39244e-07 16.3186C-5.81204e-08 14.7718 -3.75013e-07 13.442 0.039158 12.2991C0.12474 9.80116 0.395062 7.96518 1.4642 6.49364C1.93708 5.84278 2.50945 5.2704 3.16031 4.79753C4.4354 3.87112 5.98411 3.54448 8 3.4181V1.66666C8 1.11437 8.44772 0.666656 9 0.666656ZM8 5.42299C6.18393 5.54788 5.1357 5.83446 4.33588 6.41556C3.85481 6.76508 3.43176 7.18814 3.08224 7.66921C2.50114 8.46902 2.21456 9.51725 2.08967 11.3333H23.9103C23.7854 9.51725 23.4989 8.46902 22.9178 7.66921C22.5682 7.18814 22.1452 6.76508 21.6641 6.41556C20.8643 5.83446 19.8161 5.54788 18 5.42299V5.66666C18 6.21894 17.5523 6.66666 17 6.66666C16.4477 6.66666 16 6.21894 16 5.66666V5.3477C15.1206 5.33339 14.1301 5.33332 13 5.33332C11.8699 5.33332 10.8794 5.33339 10 5.3477V5.66666C10 6.21894 9.55229 6.66666 9 6.66666C8.44772 6.66666 8 6.21894 8 5.66666V5.42299ZM23.9856 13.3333H2.01438C2.00007 14.2128 2 15.2032 2 16.3333C2 18.8554 2.00137 20.6667 2.15333 22.0693C2.30327 23.4531 2.59012 24.3201 3.08224 24.9974C3.43176 25.4785 3.85481 25.9016 4.33588 26.2511C5.01322 26.7432 5.88018 27.0301 7.26406 27.18C8.66666 27.332 10.4779 27.3333 13 27.3333C14.1311 27.3333 15.1224 27.3333 16.0024 27.3189C16.0083 26.686 16.028 26.2201 16.0944 25.8007C16.614 22.5201 19.1868 19.9473 22.4673 19.4277C22.8868 19.3613 23.3527 19.3416 23.9856 19.3358C23.9999 18.4557 24 17.4645 24 16.3333C24 15.2032 23.9999 14.2128 23.9856 13.3333ZM23.9101 21.337C23.3702 21.3433 23.0536 21.3598 22.7802 21.4031C20.3555 21.7871 18.4538 23.6888 18.0698 26.1135C18.0265 26.3869 18.01 26.7035 18.0037 27.2434C19.8175 27.1184 20.8648 26.8318 21.6641 26.2511C22.1452 25.9016 22.5682 25.4785 22.9178 24.9974C23.4985 24.1982 23.785 23.1508 23.9101 21.337Z" fill="#111111" fill-opacity="0.72"/>
</svg>
