<svg width="30" height="30" viewBox="0 0 30 30" fill="none" xmlns="http://www.w3.org/2000/svg">
<path fill-rule="evenodd" clip-rule="evenodd" d="M14.9998 4.66666C11.502 4.66666 8.6665 7.50219 8.6665 11C8.6665 14.4978 11.502 17.3333 14.9998 17.3333C18.4976 17.3333 21.3332 14.4978 21.3332 11C21.3332 7.50219 18.4976 4.66666 14.9998 4.66666ZM10.6665 11C10.6665 8.60676 12.6066 6.66666 14.9998 6.66666C17.3931 6.66666 19.3332 8.60676 19.3332 11C19.3332 13.3932 17.3931 15.3333 14.9998 15.3333C12.6066 15.3333 10.6665 13.3932 10.6665 11Z" fill="#111111" fill-opacity="0.72"/>
<path fill-rule="evenodd" clip-rule="evenodd" d="M14.9998 0.666656C7.08376 0.666656 0.666504 7.08391 0.666504 15C0.666504 19.0646 2.35969 22.7355 5.07651 25.3427C7.65094 27.8134 11.1489 29.3333 14.9998 29.3333C18.8507 29.3333 22.3487 27.8134 24.9232 25.3427C27.64 22.7355 29.3332 19.0646 29.3332 15C29.3332 7.08391 22.9159 0.666656 14.9998 0.666656ZM2.6665 15C2.6665 8.18848 8.18833 2.66666 14.9998 2.66666C21.8113 2.66666 27.3332 8.18848 27.3332 15C27.3332 17.9264 26.3149 20.6138 24.6117 22.7288C23.553 20.7104 21.4379 19.3333 18.9998 19.3333H10.9998C8.56175 19.3333 6.44668 20.7104 5.38796 22.7288C3.68479 20.6138 2.6665 17.9264 2.6665 15ZM18.9998 21.3333C20.9117 21.3333 22.536 22.5722 23.1107 24.2914C20.9418 26.1865 18.1057 27.3333 14.9998 27.3333C11.894 27.3333 9.05787 26.1865 6.88899 24.2914C7.46372 22.5722 9.08801 21.3333 10.9998 21.3333H18.9998Z" fill="#111111" fill-opacity="0.72"/>
</svg>
