<svg width="64" height="64" viewBox="0 0 64 64" fill="none" xmlns="http://www.w3.org/2000/svg">
<rect width="64" height="64" rx="32" fill="#F03D00"/>
<g clip-path="url(#clip0_2068_1080)">
<path fill-rule="evenodd" clip-rule="evenodd" d="M33.0002 17.3333C33.0002 16.781 32.5524 16.3333 32.0002 16.3333C31.4479 16.3333 31.0002 16.781 31.0002 17.3333V21.6672C29.1784 21.6717 27.9818 21.7113 26.9644 22.0419C24.6303 22.8003 22.8004 24.6302 22.0421 26.9642C21.7115 27.9816 21.6718 29.1783 21.6673 31H17.3335C16.7812 31 16.3335 31.4477 16.3335 32C16.3335 32.5523 16.7812 33 17.3335 33H21.6673C21.6718 34.8217 21.7115 36.0183 22.0421 37.0358C22.8004 39.3698 24.6303 41.1997 26.9644 41.9581C27.9818 42.2887 29.1784 42.3283 31.0002 42.3328V46.6666C31.0002 47.2189 31.4479 47.6666 32.0002 47.6666C32.5524 47.6666 33.0002 47.2189 33.0002 46.6666V42.3328C34.8219 42.3283 36.0185 42.2887 37.036 41.9581C39.37 41.1997 41.1999 39.3698 41.9583 37.0358C42.2889 36.0183 42.3285 34.8217 42.333 33H46.6668C47.2191 33 47.6668 32.5523 47.6668 32C47.6668 31.4477 47.2191 31 46.6668 31H42.333C42.3285 29.1783 42.2889 27.9816 41.9583 26.9642C41.1999 24.6302 39.37 22.8003 37.036 22.0419C36.0185 21.7113 34.8219 21.6717 33.0002 21.6672V17.3333ZM27.5824 23.944C28.2825 23.7165 29.1498 23.6752 31.0002 23.6681V24C31.0002 24.5523 31.4479 25 32.0002 25C32.5524 25 33.0002 24.5523 33.0002 24V23.6681C34.8505 23.6752 35.7178 23.7165 36.4179 23.944C38.1431 24.5045 39.4956 25.8571 40.0562 27.5822C40.2836 28.2823 40.3249 29.1496 40.3321 31H40.0002C39.4479 31 39.0002 31.4477 39.0002 32C39.0002 32.5523 39.4479 33 40.0002 33H40.3321C40.3249 34.8503 40.2836 35.7177 40.0562 36.4177C39.4956 38.1429 38.1431 39.4954 36.4179 40.056C35.7178 40.2834 34.8505 40.3247 33.0002 40.3319V40C33.0002 39.4477 32.5524 39 32.0002 39C31.4479 39 31.0002 39.4477 31.0002 40V40.3319C29.1498 40.3247 28.2825 40.2834 27.5824 40.056C25.8573 39.4954 24.5047 38.1429 23.9442 36.4177C23.7167 35.7177 23.6754 34.8503 23.6683 33H24.0002C24.5524 33 25.0002 32.5523 25.0002 32C25.0002 31.4477 24.5524 31 24.0002 31H23.6683C23.6754 29.1496 23.7167 28.2823 23.9442 27.5822C24.5047 25.8571 25.8573 24.5045 27.5824 23.944Z" fill="white"/>
<path fill-rule="evenodd" clip-rule="evenodd" d="M28.6668 32C28.6668 33.8409 30.1592 35.3333 32.0002 35.3333C33.8411 35.3333 35.3335 33.8409 35.3335 32C35.3335 30.159 33.8411 28.6666 32.0002 28.6666C30.1592 28.6666 28.6668 30.159 28.6668 32ZM30.6668 32C30.6668 32.7364 31.2638 33.3333 32.0002 33.3333C32.7365 33.3333 33.3335 32.7364 33.3335 32C33.3335 31.2636 32.7365 30.6666 32.0002 30.6666C31.2638 30.6666 30.6668 31.2636 30.6668 32Z" fill="white"/>
</g>
<defs>
<clipPath id="clip0_2068_1080">
<rect width="32" height="32" fill="white" transform="translate(16 16)"/>
</clipPath>
</defs>
</svg>
