<svg width="18" height="21" viewBox="0 0 18 21" fill="none" xmlns="http://www.w3.org/2000/svg">
<path fill-rule="evenodd" clip-rule="evenodd" d="M8.09998 0.25C4.70442 0.25 2.07724 3.22603 2.49841 6.59536L2.57776 7.23021C2.69388 8.15916 2.35455 9.08706 1.66654 9.72195C0.240863 11.0375 -0.155232 13.1315 0.691418 14.8769L0.794769 15.09C1.54088 16.6282 3.05582 17.6355 4.74702 17.7408L4.9353 18.0636C5.9481 19.7998 7.5261 20.75 9.18314 20.75C10.8402 20.75 12.4182 19.7998 13.431 18.0636L13.6222 17.7358C15.043 17.6236 16.3384 16.8514 17.1111 15.6373C18.2932 13.7799 17.9801 11.3432 16.3668 9.84496L16.3229 9.8042C16.1263 9.62158 15.9563 9.41688 15.8151 9.1959C15.592 8.8469 15.1282 8.74484 14.7792 8.96793C14.4302 9.19103 14.3281 9.6548 14.5512 10.0038C14.7602 10.3307 15.0116 10.6335 15.3022 10.9033L15.3461 10.9441C16.4289 11.9497 16.6391 13.5852 15.8456 14.832C15.2835 15.7152 14.3092 16.25 13.2623 16.25H13.1974C13.1946 16.2499 13.1917 16.2499 13.1889 16.2499C13.1827 16.2499 13.1765 16.2499 13.1703 16.25H5.19595C5.18695 16.2498 5.17793 16.2498 5.16891 16.25H5.04147C3.8079 16.25 2.68275 15.5452 2.14438 14.4353L2.04102 14.2223C1.48294 13.0718 1.74404 11.6915 2.68379 10.8243C3.72755 9.86114 4.24234 8.45345 4.06618 7.04416L3.98682 6.40931C3.67757 3.93526 5.60667 1.75 8.09998 1.75H9.80289C10.9214 1.75 11.9242 2.18763 12.6655 2.8947C12.9652 3.18058 13.44 3.16934 13.7259 2.86959C14.0117 2.56985 14.0005 2.09511 13.7008 1.80923C12.6926 0.847744 11.3235 0.25 9.80289 0.25H8.09998ZM9.18314 19.25C8.262 19.25 7.27922 18.7877 6.51988 17.75H11.8464C11.0871 18.7877 10.1043 19.25 9.18314 19.25Z" fill="#2D264B"/>
<path d="M16.1833 6C16.1833 7.10457 15.2878 8 14.1833 8C13.0787 8 12.1833 7.10457 12.1833 6C12.1833 4.89543 13.0787 4 14.1833 4C15.2878 4 16.1833 4.89543 16.1833 6Z" fill="#2D264B"/>
</svg>
