<svg width="23" height="23" viewBox="0 0 23 23" fill="none" xmlns="http://www.w3.org/2000/svg">
<path fill-rule="evenodd" clip-rule="evenodd" d="M9.75 0.25C4.36522 0.25 0 4.61522 0 10C0 15.3848 4.36522 19.75 9.75 19.75C15.1348 19.75 19.5 15.3848 19.5 10C19.5 4.61522 15.1348 0.25 9.75 0.25ZM1.5 10C1.5 5.44365 5.19365 1.75 9.75 1.75C14.3063 1.75 18 5.44365 18 10C18 14.5563 14.3063 18.25 9.75 18.25C5.19365 18.25 1.5 14.5563 1.5 10Z" fill="#2D264B"/>
<path d="M18.2804 17.4698C17.9875 17.1769 17.5126 17.1769 17.2197 17.4698C16.9268 17.7626 16.9268 18.2375 17.2197 18.5304L21.2196 22.5304C21.5125 22.8233 21.9874 22.8233 22.2803 22.5304C22.5732 22.2375 22.5732 21.7626 22.2803 21.4697L18.2804 17.4698Z" fill="#2D264B"/>
</svg>
