<svg width="29" height="28" viewBox="0 0 29 28" fill="none" xmlns="http://www.w3.org/2000/svg">
<path fill-rule="evenodd" clip-rule="evenodd" d="M16.3174 4.40426C16.3174 5.40074 15.5096 6.20854 14.5131 6.20854C13.5166 6.20854 12.7088 5.40074 12.7088 4.40426C12.7088 3.40778 13.5166 2.59997 14.5131 2.59997C15.5096 2.59997 16.3174 3.40778 16.3174 4.40426ZM18.4558 4.40426C18.4558 6.58175 16.6906 8.34695 14.5131 8.34695C12.3356 8.34695 10.5704 6.58175 10.5704 4.40426C10.5704 2.22677 12.3356 0.461563 14.5131 0.461563C16.6906 0.461563 18.4558 2.22677 18.4558 4.40426ZM0.947754 8.59757C0.947754 8.59757 5.16362 6.04218 9.27309 7.4164C13.3826 8.79061 14.5 13.1295 14.5 13.1295L14.4999 13.1872L14.4985 13.1925L14.5008 13.1904L14.5 13.1872L14.5 13.1295C14.5 13.1295 15.6173 8.79061 19.7268 7.4164C23.8363 6.04218 28.0521 8.59757 28.0521 8.59757C28.0521 8.59757 26.9778 11.2838 24.6278 13.1584C26.9778 15.033 28.0521 17.7193 28.0521 17.7193C28.0521 17.7193 23.8362 20.2746 19.7268 18.9003C18.9995 18.6571 18.366 18.3211 17.8158 17.9327C18.1227 18.7869 18.3219 19.7265 18.3219 20.7269C18.3219 25.0874 14.5377 27.5385 14.5377 27.5385C14.5377 27.5385 10.7534 25.0874 10.7534 20.7269C10.7534 19.6978 10.9642 18.7329 11.2862 17.8593C10.7127 18.2787 10.0458 18.6419 9.27315 18.9003C5.1637 20.2746 0.947796 17.7193 0.947796 17.7193C0.947796 17.7193 2.02207 15.033 4.37214 13.1584C2.02206 11.2838 0.947754 8.59757 0.947754 8.59757ZM8.5992 16.885C9.94268 16.4357 10.8675 15.5269 11.4955 14.6007C10.204 14.971 8.59853 15.1212 6.88789 14.5492C6.70791 14.489 6.53229 14.4226 6.361 14.3508C5.44047 14.9202 4.68138 15.7146 4.08655 16.5206C4.03785 16.5866 3.99068 16.6521 3.94502 16.7169C4.02049 16.7412 4.09758 16.7652 4.17616 16.7886C5.52594 17.1907 7.1213 17.3792 8.5992 16.885ZM3.945 9.59986C3.99066 9.66469 4.03783 9.73018 4.08652 9.79616C4.92287 10.9294 6.0839 12.0396 7.56181 12.5339C9.0051 13.0165 10.3814 12.7848 11.4817 12.3676C11.5977 12.3237 11.7092 12.2781 11.8158 12.2319C11.7584 12.1308 11.6968 12.0273 11.6306 11.9224C11.0025 10.9274 10.0425 9.91434 8.59917 9.4317C7.12127 8.93748 5.5259 9.12603 4.17614 9.52818C4.09755 9.55159 4.02047 9.57554 3.945 9.59986ZM20.4007 16.885C19.0572 16.4357 18.1325 15.5269 17.5044 14.6007C18.7959 14.971 20.4014 15.1212 22.112 14.5492C22.292 14.489 22.4676 14.4226 22.6389 14.3508C23.5594 14.9202 24.3185 15.7146 24.9134 16.5206C24.962 16.5866 25.0092 16.6521 25.0549 16.7169C24.9794 16.7412 24.9023 16.7652 24.8237 16.7886C23.474 17.1907 21.8786 17.3792 20.4007 16.885ZM25.0549 9.59986C25.0092 9.66469 24.9621 9.73018 24.9134 9.79616C24.077 10.9294 22.916 12.0396 21.4381 12.5339C19.9948 13.0165 18.6185 12.7848 17.5182 12.3676C17.4022 12.3237 17.2907 12.2781 17.1841 12.2319C17.2415 12.1308 17.3031 12.0273 17.3693 11.9224C17.9974 10.9274 18.9574 9.91434 20.4007 9.4317C21.8786 8.93748 23.474 9.12603 24.8238 9.52818C24.9023 9.55159 24.9794 9.57554 25.0549 9.59986ZM14.5377 16.3387C14.4904 16.403 14.4429 16.4689 14.3955 16.5364C13.5809 17.6963 12.8918 19.1587 12.8918 20.7269C12.8918 22.2583 13.5522 23.4979 14.3015 24.4148C14.3804 24.5115 14.4595 24.6034 14.5377 24.6903C14.6158 24.6034 14.6949 24.5115 14.7738 24.4148C15.5231 23.4979 16.1835 22.2583 16.1835 20.7269C16.1835 19.1587 15.4944 17.6963 14.6798 16.5364C14.6324 16.4689 14.585 16.403 14.5377 16.3387Z" fill="#F03D00"/>
</svg>
