<svg width="24" height="21" viewBox="0 0 24 21" fill="none" xmlns="http://www.w3.org/2000/svg">
<path d="M9.99993 12.25C9.58572 12.25 9.24993 12.5858 9.24993 13C9.24993 13.4142 9.58572 13.75 9.99993 13.75H15.9999C16.4141 13.75 16.7499 13.4142 16.7499 13C16.7499 12.5858 16.4141 12.25 15.9999 12.25H9.99993Z" fill="white"/>
<path fill-rule="evenodd" clip-rule="evenodd" d="M1.72754 0.818098C1.62708 0.416252 1.21988 0.171932 0.818032 0.272393C0.416185 0.372855 0.171865 0.780056 0.272326 1.1819L1.32407 5.38888L2.30288 9.47287C2.71907 11.2095 3.04667 12.5764 3.43542 13.6383C3.83418 14.7275 4.32319 15.5731 5.10776 16.2216C5.17547 16.2775 5.24445 16.332 5.31465 16.3848C6.12811 16.9966 7.06442 17.275 8.21662 17.4089C9.33985 17.5395 10.7454 17.5395 12.5312 17.5395H13.1246C14.6696 17.5395 15.8859 17.5395 16.8657 17.4404C17.8693 17.3389 18.6951 17.1283 19.4382 16.663C19.7907 16.4423 20.1182 16.184 20.415 15.8927C21.0406 15.2785 21.4379 14.5245 21.7705 13.5723C22.0952 12.6425 22.3787 11.4598 22.7388 9.95728L22.7597 9.87001C22.9768 8.96409 23.1558 8.21743 23.225 7.61254C23.2967 6.98475 23.2674 6.38698 22.9541 5.8412C22.82 5.60776 22.6524 5.39527 22.4567 5.21052C21.999 4.77856 21.4245 4.61076 20.7972 4.53423C20.1929 4.46049 19.4251 4.4605 18.4935 4.46053L2.63815 4.46053L1.72754 0.818098ZM3.75047 9.07694L3.00356 5.96053H18.4448C19.4373 5.96053 20.1129 5.96185 20.6156 6.02319C21.1059 6.08301 21.3069 6.18794 21.4272 6.30143C21.5161 6.38541 21.5923 6.482 21.6532 6.5881C21.7356 6.7315 21.7908 6.95145 21.7347 7.44219C21.6772 7.94532 21.521 8.60257 21.2897 9.56774C20.9179 11.1188 20.6512 12.2278 20.3544 13.0777C20.0626 13.9132 19.7633 14.4304 19.3642 14.8223C19.1448 15.0376 18.9027 15.2285 18.6422 15.3917C18.1681 15.6885 17.5953 15.859 16.7148 15.948C15.8192 16.0386 14.6786 16.0395 13.0836 16.0395H12.5789C10.735 16.0395 9.41645 16.0383 8.38978 15.919C7.38209 15.8019 6.73783 15.5783 6.21629 15.186C6.16441 15.147 6.11342 15.1067 6.06337 15.0654C5.56035 14.6496 5.19275 14.0752 4.84399 13.1226C4.48868 12.152 4.18021 10.87 3.75047 9.07694Z" fill="white"/>
<path d="M10.4736 19.9474C10.4736 20.5287 10.0023 21 9.42098 21C8.83963 21 8.36835 20.5287 8.36835 19.9474C8.36835 19.366 8.83963 18.8947 9.42098 18.8947C10.0023 18.8947 10.4736 19.366 10.4736 19.9474Z" fill="white"/>
<path d="M16.7894 19.9474C16.7894 20.5287 16.3181 21 15.7368 21C15.1554 21 14.6841 20.5287 14.6841 19.9474C14.6841 19.366 15.1554 18.8947 15.7368 18.8947C16.3181 18.8947 16.7894 19.366 16.7894 19.9474Z" fill="white"/>
</svg>
