<svg width="22" height="21" viewBox="0 0 22 21" fill="none" xmlns="http://www.w3.org/2000/svg">
<path fill-rule="evenodd" clip-rule="evenodd" d="M17.955 1.23746C18.7769 2.05936 19.0663 3.21123 18.824 4.26596C20.4668 4.42856 21.75 5.81443 21.75 7.50001C21.75 8.44022 21.3508 9.28717 20.7126 9.88059C20.75 10.475 20.75 11.0253 20.75 12.1147V12.1696C20.75 13.3672 20.75 14.3028 20.7008 15.0577C20.6509 15.8243 20.548 16.4576 20.3169 17.0422C19.739 18.5036 18.6262 19.6756 17.212 20.2893C16.6426 20.5364 16.0269 20.6455 15.2893 20.6983C14.5652 20.75 13.6694 20.75 12.5292 20.75H9.47089C8.33069 20.75 7.43481 20.75 6.71075 20.6983C5.97308 20.6455 5.3574 20.5364 4.78803 20.2893C3.37384 19.6756 2.26097 18.5036 1.68314 17.0422C1.45201 16.4576 1.34909 15.8243 1.29916 15.0577C1.25 14.3028 1.25 13.3673 1.25 12.1696V12.1429C1.25 11.6672 1.24052 11.2839 1.23223 10.9486C1.22181 10.5272 1.21327 10.1816 1.22777 9.82369C0.624454 9.23365 0.25 8.41056 0.25 7.50001C0.25 5.76203 1.61421 4.34268 3.33023 4.25437C3.09267 3.2028 3.38303 2.05636 4.20192 1.23747C5.47112 -0.0317348 7.52891 -0.0317348 8.79811 1.23747L10.9194 3.35879C10.9748 3.41419 11.0278 3.47113 11.0784 3.52947C11.129 3.47113 11.182 3.41418 11.2374 3.35878L13.3588 1.23746C14.628 -0.0317481 16.6857 -0.0317481 17.955 1.23746ZM14.4194 2.29812C15.1028 1.6147 16.2109 1.6147 16.8943 2.29812C17.4218 2.8256 17.5424 3.60706 17.2551 4.25001H12.4675L14.4194 2.29812ZM7.73745 2.29813L9.68933 4.25001H4.90175C4.61448 3.60706 4.7351 2.8256 5.26258 2.29813C5.94599 1.61471 7.05403 1.61471 7.73745 2.29813ZM1.75 7.50001C1.75 6.53351 2.5335 5.75001 3.5 5.75001H10.25V9.25001H3.5C2.5335 9.25001 1.75 8.46651 1.75 7.50001ZM11.75 19L11.75 10.75H18.5C18.7555 10.75 19.0042 10.7205 19.2427 10.6648C19.2499 11.0336 19.25 11.4828 19.25 12.1429C19.25 13.373 19.2496 14.2597 19.204 14.9602C19.1588 15.6545 19.0714 16.1126 18.9219 16.4907C18.4848 17.5962 17.651 18.4637 16.6149 18.9133C16.2654 19.0649 15.8392 19.1551 15.1823 19.2021C14.518 19.2496 13.6756 19.25 12.5 19.25H11.7073C11.735 19.1718 11.75 19.0877 11.75 19ZM10.25 19L10.25 10.75H3.5C3.23329 10.75 2.97408 10.7179 2.72603 10.6573L2.72973 10.7957C2.73873 11.1282 2.75 11.5443 2.75 12.1429C2.75 13.373 2.75037 14.2597 2.79599 14.9602C2.84121 15.6545 2.92859 16.1126 3.07806 16.4907C3.51518 17.5962 4.34904 18.4637 5.38514 18.9133C5.73463 19.0649 6.1608 19.1551 6.81769 19.2021C7.48204 19.2496 8.3244 19.25 9.5 19.25H10.2927C10.265 19.1718 10.25 19.0877 10.25 19ZM20.25 7.50001C20.25 6.53351 19.4665 5.75001 18.5 5.75001H11.75V9.25001H18.5C19.4665 9.25001 20.25 8.46651 20.25 7.50001Z" fill="white" fill-opacity="0.72"/>
</svg>
